<?xml version="1.0" standalone="no"?>
<!DOCTYPE svg PUBLIC "-//W3C//DTD SVG 20010904//EN"
 "http://www.w3.org/TR/2001/REC-SVG-20010904/DTD/svg10.dtd">
<svg version="1.0" xmlns="http://www.w3.org/2000/svg"
 width="702.000000pt" height="607.000000pt" viewBox="0 0 702.000000 607.000000"
 preserveAspectRatio="xMidYMid meet">

<g transform="translate(0.000000,607.000000) scale(0.100000,-0.100000)"
fill="#000000" stroke="none">
<path d="M2556 3568 c-3 -7 -7 -565 -11 -1240 l-6 -1228 280 0 281 0 2 453 3
452 533 3 532 2 -2 213 -3 212 -532 3 -533 2 0 350 0 350 595 0 595 0 0 220 0
220 -865 0 c-684 0 -866 -3 -869 -12z"/>
<path d="M4519 1639 c-214 -33 -300 -307 -147 -461 48 -47 102 -71 173 -76
116 -8 206 40 258 136 76 140 23 310 -116 375 -61 30 -105 36 -168 26z"/>
</g>
</svg>
